<?xml version="1.0" encoding="UTF-8" standalone="no"?>
<svg
   viewBox="0 0 618.76085 742.06269"
   id="svg1"
   width="618.76086"
   height="742.06268"
   version="1.1"
   xml:space="preserve"
   xmlns:xlink="http://www.w3.org/1999/xlink"
   xmlns="http://www.w3.org/2000/svg"
   xmlns:svg="http://www.w3.org/2000/svg"><defs
     id="defs1"><clipPath id="temporalis-clippath"><use xlink:href="#temporalis-clip" /></clipPath><clipPath id="masseter-clippath"><use xlink:href="#masseter-clip" /></clipPath><marker
       id="arrowhead"
       markerWidth="6"
       markerHeight="6"
       refX="4.5"
       refY="3"
       orient="auto"><polygon
         points="0,0 6,3 0,6 "
         fill="#000000"
         id="polygon1" /></marker></defs><image
     width="592.10992"
     height="640.56409"
     preserveAspectRatio="none"
     xlink:href="/images/palpation/palpation-head.jpeg"
     id="background-temporalis"
     clip-path="url(#temporalis-clippath)"
     x="26.650946"
     y="36.678284" /><image
     width="611"
     height="742.06268"
     preserveAspectRatio="none"
     xlink:href="/images/palpation/palpation-head.jpeg"
     id="background-masseter"
     clip-path="url(#masseter-clippath)"
     x="1.232816e-06"
     y="-2.6183287e-07" /><path
     id="masseter-clip"
     d="m 336.1608,343.29346 c 0.4555,4.09969 -1.21972,31.62914 -2.73314,47.37425 -1.30469,13.57352 -3.95449,26.98937 -5.46624,40.54139 -1.11433,9.98935 -5.01164,20.26568 -2.65499,30.03681 1.72695,7.16025 6.30714,13.7584 11.76541,18.70399 5.65936,5.12778 13.05845,8.51007 20.49846,10.23306 8.72788,2.02124 19.0299,4.11319 26.87577,-0.2116 3.7743,-2.08045 7.0086,-5.80255 6.98914,-10.87726 -0.027,-7.13355 -1.55541,-14.36941 -0.6118,-21.46477 1.31711,-9.90432 4.96483,-19.41271 8.65492,-28.69784 3.00947,-7.57252 7.38389,-14.52969 10.9325,-21.86504 4.52602,-9.35576 9.27418,-18.62342 13.21012,-28.24234 2.07332,-5.06691 5.46627,-15.48772 5.46627,-15.48772 0,0 -4.95906,-2.88723 -7.28835,-4.55523 -3.02708,-2.16768 -5.63911,-4.8772 -8.6549,-7.06057 -6.27768,-4.54491 -12.4916,-9.41002 -19.58744,-12.52685 -4.88949,-2.1477 -10.23654,-3.12772 -15.48773,-4.09969 -4.88044,-0.9033 -9.93273,-2.54371 -14.80443,-1.59432 -5.83437,1.137 -10.20705,6.19338 -15.71549,8.42715 -2.04879,0.8308 -4.1762,1.61497 -6.37731,1.82208 -1.66976,0.1571 -5.01073,-0.4555 -5.01073,-0.4555 z"
     fill="rgba(200,200,200,0.3)"
     stroke="#888888"
     stroke-width="10"
     style="fill:none" /><path
     id="temporalis-clip"
     d="m 218.36778,106.97974 c -13.23652,6.02681 -30.79125,19.54111 -42.37558,33.26152 -7.46873,8.84593 -12.79787,19.58046 -16.56125,30.52895 -3.90101,11.34889 -6.10968,23.51315 -5.91755,35.51225 0.2333,14.56978 1.79829,29.96154 8.56222,42.86821 2.0142,3.84343 4.29364,7.57452 6.8017,11.17083 0.12751,0.18283 0.25561,0.36531 0.38429,0.54745 9.64661,13.65326 22.58687,25.33228 36.79501,33.79411 12.87915,7.67033 20.28438,9.27185 19.53346,-0.057 -0.28197,-3.50303 0.88914,-20.87237 2.77186,-25.19879 1.77006,-4.06753 16.79513,-20.9778 34.66197,-20.61148 11.24129,0.23048 23.61122,1.03279 30.8934,8.17463 3.10106,3.0413 5.34202,5.42902 7.54023,9.35641 4.26189,7.61438 7.87793,16.95196 7.25094,23.66187 -1.12068,11.99329 -8.74708,12.43865 -1.08629,19.91104 9.36211,9.13188 51.37333,3.19928 55.16144,3.22334 7.36758,0.047 17.88814,-2.52884 29.1994,-4.79199 7.06306,-1.41318 14.82301,-1.80265 21.09427,-5.19485 5.21979,-2.82344 10.48379,-18.62858 12.43013,-23.60255 8.1994,-20.95398 14.82685,-50.96995 10.63331,-76.30653 -3.55218,-21.4616 -15.44818,-41.55731 -29.3525,-58.28717 -11.91054,-14.33087 -27.58295,-26.01218 -44.48776,-33.85206 -23.56283,-10.92764 -59.13165,-16.417556 -76.07571,-16.854286 -9.61914,-0.24793 -24.78925,0.38368 -36.89058,2.75273 -10.64428,2.08381 -22.47977,6.129256 -30.96641,9.993366 z"
     fill="rgba(200,200,200,0.3)"
     stroke="#888888"
     stroke-width="10"
     style="fill:none;stroke-width:0.5;stroke-dasharray:none" /><g
     id="interactive-regions"
     transform="translate(56.022551,22.093449)"><path
       id="masseter"
       d="m 281.72922,320.6004 c 0.4555,4.09969 -1.21972,31.62914 -2.73314,47.37425 -1.30469,13.57352 -3.95449,26.98937 -5.46624,40.54139 -1.11433,9.98935 -5.01164,20.26568 -2.65499,30.03681 1.72695,7.16025 6.30714,13.7584 11.76541,18.70399 5.65936,5.12778 13.05845,8.51007 20.49846,10.23306 8.72788,2.02124 19.0299,4.11319 26.87577,-0.2116 3.7743,-2.08045 7.0086,-5.80255 6.98914,-10.87726 -0.027,-7.13355 -1.55541,-14.36941 -0.6118,-21.46477 1.31711,-9.90432 4.96483,-19.41271 8.65492,-28.69784 3.00947,-7.57252 7.38389,-14.52969 10.9325,-21.86504 4.52602,-9.35576 9.27418,-18.62342 13.21012,-28.24234 2.07332,-5.06691 5.46627,-15.48772 5.46627,-15.48772 0,0 -4.95906,-2.88723 -7.28835,-4.55523 -3.02708,-2.16768 -5.63911,-4.8772 -8.6549,-7.06057 -6.27768,-4.54491 -12.4916,-9.41002 -19.58744,-12.52685 -4.88949,-2.1477 -10.23654,-3.12772 -15.48773,-4.09969 -4.88044,-0.9033 -9.93273,-2.54371 -14.80443,-1.59432 -5.83437,1.137 -10.20705,6.19338 -15.71549,8.42715 -2.04879,0.8308 -4.1762,1.61497 -6.37731,1.82208 -1.66976,0.1571 -5.01073,-0.4555 -5.01073,-0.4555 z"
       fill="rgba(200,200,200,0.3)"
       stroke="#888888"
       stroke-width="10"
       style="fill:none" /><path
       style="fill:none;stroke:none"
       d="m 292.85445,286.89376 -44.7547,-0.30797 0.57216,-207.72127 c 0,0 23.84981,4.017748 35.52456,7.104912 9.08455,2.402235 15.65007,5.068511 23.09096,8.525894 4.56876,2.122858 13.54836,7.010964 13.54836,7.010964 z"
       id="temporalisMiddle" /><path
       id="temporalis"
       d="m 165.9102,79.220633 c -13.23652,6.026807 -30.79125,19.541102 -42.37558,33.261517 -7.46873,8.84593 -12.79787,19.58046 -16.56125,30.52895 -3.90101,11.34889 -6.10968,23.51315 -5.91755,35.51225 0.2333,14.56978 1.79829,29.96154 8.56222,42.86821 2.0142,3.84343 4.29364,7.57452 6.8017,11.17083 0.12751,0.18283 0.25561,0.36531 0.38429,0.54745 9.64661,13.65326 22.58687,25.33228 36.79501,33.79411 16.52224,9.84002 36.56077,12.60283 55.57361,15.4877 33.35063,5.06038 82.93587,2.85666 101.1534,2.97237 7.36758,0.047 17.88814,-2.52884 29.1994,-4.79199 7.06306,-1.41318 14.82301,-1.80265 21.09427,-5.19485 5.21979,-2.82344 10.48379,-18.62858 12.43013,-23.60255 8.1994,-20.95398 14.82685,-50.96995 10.63331,-76.30653 -3.55218,-21.4616 -15.44818,-41.55731 -29.3525,-58.28717 C 342.42012,102.85001 326.74771,91.168696 309.8429,83.32882 286.28007,72.401183 250.71125,66.911259 233.76719,66.474529 c -9.61914,-0.24793 -24.78925,0.383681 -36.89058,2.752734 -10.64428,2.083808 -22.47977,6.129259 -30.96641,9.99337 z"
       fill="rgba(200,200,200,0.3)"
       stroke="#888888"
       stroke-width="10"
       style="fill:none"
       transform="translate(-2.5207762,6.0877854)" /><path
       style="fill:none;stroke:none"
       d="m 284.95565,361.39508 65.87329,20.96719 10.21231,-20.71372 7.45296,-19.07441 c 0,0 -10.32068,-8.00258 -15.68412,-11.72181 -5.10558,-3.54042 -9.94495,-7.69105 -15.68412,-10.07086 -8.32591,-3.45244 -26.41535,-5.77836 -26.41535,-5.77836 0,0 -3.06497,0.89515 -4.45759,1.65096 -2.59253,1.40702 -4.53227,3.82974 -7.09913,5.28307 -2.64128,1.49547 -5.51488,2.58745 -8.41989,3.46702 -1.34284,0.40658 -4.1274,0.82548 -4.1274,0.82548 z"
       id="masseterOrigin" /><path
       style="fill:none;stroke:none"
       d="m 279.37916,404.58413 54.17195,18.62505 c 0,0 5.27336,-15.43835 8.50454,-22.91902 2.5443,-5.89042 8.54818,-17.24712 8.54818,-17.24712 l -65.69029,-20.93138 z"
       id="masseterBody" /><path
       style="fill:none;stroke:none"
       d="m 333.39229,423.56838 c 0,0 -1.69925,8.52704 -2.10874,12.84747 -0.27932,2.9471 -0.51995,5.93142 -0.23362,8.87784 0.29331,3.01819 1.73016,5.85623 1.98583,8.87784 0.1282,1.51516 0.37093,3.16051 -0.23363,4.55573 -0.58029,1.3392 -1.84384,2.31361 -3.03715,3.15397 -1.39643,0.98341 -3.03857,1.60547 -4.67255,2.10265 -2.22919,0.67829 -4.5623,1.21094 -6.89201,1.16813 -6.32199,-0.11617 -12.64866,-1.64601 -18.57337,-3.85485 -5.39,-2.00949 -10.83519,-4.51631 -15.06896,-8.41058 -3.48937,-3.20957 -6.33123,-7.33968 -7.94333,-11.79818 -1.5704,-4.34317 -1.61518,-9.17058 -1.40177,-13.78401 0.1962,-4.2413 1.69435,-8.32157 2.45309,-12.49907 0.58338,-3.21199 1.6138,-9.65973 1.6138,-9.65973 z"
       id="masseterInsertion" /><path
       style="fill:none;stroke:none"
       d="M 293.70276,286.90874 321.8177,102.08196 c 9.39694,6.37781 14.73485,10.60665 20.76244,17.30203 11.51569,12.79149 22.03046,27.05136 28.72136,42.90902 3.89599,9.23363 5.6809,19.40652 6.22873,29.41344 0.81106,14.81531 -0.81527,29.89846 -4.41287,44.2932 -3.59135,14.36972 -14.13913,39.18344 -16.91486,41.08975 -2.59897,1.78491 -14.27718,4.36613 -22.18772,5.92723 -9.67502,1.9093 -19.41126,3.06525 -29.93081,3.41927 -3.48905,0.11742 -10.38121,0.47284 -10.38121,0.47284 z"
       id="temporalisAnterior" /><path
       style="fill:none;stroke:none"
       d="m 247.09347,286.52355 c 0,0 -20.8112,-0.93939 -31.12925,-2.27454 -16.18734,-2.09464 -33.17472,-2.45578 -48.13645,-8.9799 -18.12145,-7.90193 -36.20647,-19.1958 -47.64287,-35.32144 -11.22245,-15.82397 -16.757,-36.1901 -17.25001,-55.58336 -0.4405,-17.32727 4.1995,-35.37207 12.86905,-50.38097 9.47286,-16.39961 24.59794,-29.6504 40.65977,-39.685328 12.08322,-7.549213 26.29061,-11.520938 40.24452,-14.398978 11.33198,-2.337259 23.07172,-2.169948 34.6422,-2.192544 5.44406,-0.01063 16.3035,0.96795 16.3035,0.96795 z"
       id="temporalisPosterior" /></g><g
     id="decorative-features"
     transform="translate(51.000994,25.680275)"><path
       id="eyebrow"
       d="m 396.71561,232.64845 c 0.7898,-1.49602 2.17369,-2.59577 3.33937,-3.82179 3.12773,-3.28965 6.28986,-6.57523 9.78964,-9.4659 3.36158,-2.77652 6.86936,-5.44268 10.70475,-7.5161 4.24143,-2.29292 8.71063,-4.40363 13.4379,-5.35238 4.35513,-0.8741 8.89176,-0.5218 13.32399,-0.2277 3.42784,0.2275 6.76061,1.35121 10.19101,1.53624 2.10304,0.1134 4.25394,0.1794 6.31276,-0.2643 0.7291,-0.1572 1.33011,-0.8563 2.07568,-0.8356 0.8055,0.022 1.77788,0.3327 2.18895,1.02574 0.3252,0.5483 0.063,1.29766 -0.1183,1.90901 -0.1864,0.6301 -0.6122,1.16479 -0.9684,1.71694 -0.372,0.5767 -0.7355,1.17152 -1.21677,1.66081 -1.5475,1.57343 -3.20263,3.24229 -5.27501,4.00105 -2.61194,0.9563 -5.55171,0.4909 -8.33279,0.4423 -5.02963,-0.088 -10.00248,-1.29751 -15.0328,-1.32633 -3.2741,-0.019 -6.59327,0.06 -9.79371,0.7511 -3.17484,0.6853 -6.19496,1.99777 -9.1576,3.32897 -3.58686,1.61168 -7.18491,3.31534 -10.37576,5.6135 -2.34324,1.68768 -4.33067,3.83155 -6.3244,5.92059 -1.04344,1.09333 -1.53288,2.90142 -2.94077,3.45095 -0.7543,0.2944 -1.95552,0.3764 -2.41162,-0.2927 -0.4372,-0.6414 0.2214,-1.56794 0.5838,-2.25439 z"
       fill="#666666"
       style="opacity:0.4;stroke-width:10" /><path
       id="eye-details"
       d="m 425.98095,252.65546 c -0.4831,0.3221 -3.7847,3.1405 -3.7847,3.1405 l -0.08,2.17419 1.6105,1.20788 3.4626,1.20786 4.58995,0.2416 -14.17249,-0.081 -4.4289,0.9663 4.58994,-3.78471 z"
       fill="#666666"
       style="opacity:0.4;stroke-width:10" /><path
       id="ear-outline"
       d="m 229.29722,328.18845 c 0,0 2.41577,-1.32867 2.73787,-1.48972 0.3221,-0.1611 1.93261,-1.32866 2.3755,-2.33524 0.4429,-1.00658 0.8455,-3.10023 0.8858,-3.78471 0.04,-0.6844 0.081,-3.4626 0.081,-3.90548 0,-0.4429 -0.1615,-2.09366 -0.1615,-2.09366 l -0.161,-2.65735 1.89235,6.84468 4.10681,5.51601 3.01971,3.78468 0.4026,3.01971 -0.7247,3.42234 -1.32868,1.16763 c 0,0 -2.17419,-0.6442 -2.3755,-0.926 -0.2013,-0.2818 -2.77813,-2.69762 -3.01971,-2.89894 -0.2416,-0.2013 -4.46917,-2.81839 -4.46917,-2.81839 z"
       fill="#666666"
       style="opacity:0.4;stroke-width:10" /></g><g
     id="feature-lines"
     transform="translate(51.000994,25.680275)"><path
       id="feature-line-right-eye-bone"
       d="m 411.32507,288.03062 c -1.36657,-1.1388 -10.79137,-5.91382 -14.34893,-10.70475 -3.32171,-4.47331 -4.81634,-10.21331 -5.69402,-15.71549 -1.14865,-7.20086 0.6833,-21.86503 0.6833,-21.86503"
       stroke="#888888"
       stroke-width="5"
       fill="none"
       style="opacity:0.5" /><path
       id="feature-line-right-skull-bone"
       d="m 152.67718,386.53048 c 0.6775,2.54687 4.18733,9.8632 4.18733,9.8632 l 4.99259,9.1799 4.18733,5.31469 4.67048,7.89151 m 40.58484,-52.98587 c 0,0 -9.73242,14.01494 -16.26616,19.32614 -3.07527,2.49986 -10.46833,5.63679 -10.46833,5.63679 h -15.46091 c 0,0 -5.27432,-2.64446 -8.16644,-3.24867 -2.73306,-0.571 -5.57781,-1.16739 -8.1469,-2.34427 -2.34355,-1.07357 -6.47302,-4.23119 -6.47302,-4.23119 l -12.80595,-4.99258 c 0,0 -18.35983,-7.2473 -19.80929,-7.40835 -1.44946,-0.1611 -6.28099,-1.61052 -6.9252,-1.61052 -0.6442,0 -3.7081,0.1783 -3.54312,1.44946 0.4001,3.0829 0.9663,6.281 0.9663,6.281 l 0.9663,8.37466 c 0,0 0.8186,4.16481 1.61051,6.11994 0.74,1.82683 2.11957,3.34326 2.89892,5.15364 0.8694,2.01965 1.44946,7.40835 1.44946,7.40835"
       stroke="#888888"
       stroke-width="5"
       fill="none"
       style="opacity:0.5" /><path
       id="feature-line-jaw"
       d="m 332.24919,649.40498 c 0,0 -13.1332,-14.68161 -18.09301,-23.11655 -4.73862,-8.05879 -7.77684,-17.03003 -10.89623,-25.84298 -7.71172,-21.78724 -14.69223,-43.57918 -22.86926,-65.06469 -6.43951,-16.92011 -14.47305,-33.21741 -20.61454,-50.24795 -4.27387,-11.85158 -7.58449,-24.02903 -11.27358,-36.07546 -3.28232,-10.71817 -6.03174,-21.60523 -9.66307,-32.21024 -2.12511,-6.20621 -5.09257,-12.11016 -7.08625,-18.35983 -1.85192,-5.80529 -4.50943,-17.71563 -4.50943,-17.71563"
       stroke="#888888"
       stroke-width="5"
       fill="none"
       style="opacity:0.5" /><path
       id="feature-line-neck"
       d="m 460.06588,502.58123 c 0,0 -9.26759,1.36919 -13.93562,1.69673 -6.19727,0.4348 -12.42836,0.6414 -18.63417,0.3531 -14.95769,-0.6948 -29.93632,-2.18509 -44.64111,-5.01073 -15.77212,-3.03073 -31.13076,-7.97316 -46.46319,-12.75458 -15.35776,-4.78932 -30.82347,-9.47298 -45.55214,-15.94327 -6.77917,-2.97808 -13.98283,-5.63814 -19.58743,-10.47699 -3.86177,-3.33414 -6.95026,-7.67703 -9.11043,-12.29908 -1.91795,-4.10377 -2.5786,-8.72155 -3.18865,-13.21012 -1.22762,-9.03245 -0.1458,-18.24798 -0.911,-27.3313 -0.7589,-9.00866 -1.76593,-18.03246 -3.64418,-26.87576 -0.7887,-3.71318 -3.18865,-10.93251 -3.18865,-10.93251"
       stroke="#888888"
       stroke-width="5"
       fill="none"
       style="opacity:0.5" /><path
       id="feature-line-head-outline"
       d="m 338.51234,646.71355 c -0.4079,-2.44765 -0.5553,-9.29523 -0.6217,-13.90016 -0.1277,-8.85727 1.58527,-15.28362 3.29958,-22.75313 1.27214,-5.54288 3.26533,-10.89982 5.15893,-16.26229 2.58258,-7.31358 5.75767,-14.40605 8.45145,-21.67941 2.73816,-7.3932 4.6219,-15.11706 7.83589,-22.31617 2.88808,-6.46909 5.10595,-13.73657 10.22866,-18.63023 3.91914,-3.74391 9.51659,-5.27445 14.59591,-7.16575 4.37139,-1.6277 9.01788,-2.39028 13.5359,-3.55044 7.07253,-1.81613 14.19097,-3.45367 21.24543,-5.33874 9.83886,-2.6291 19.99156,-4.41797 29.39558,-8.32691 6.77228,-2.81501 14.63009,-5.02606 19.18244,-10.77621 2.00102,-2.52753 2.2457,-6.09874 2.67596,-9.29364 0.3663,-2.71983 0.19,-5.50388 -0.1039,-8.23248 -0.4407,-4.09184 -0.9299,-8.28179 -2.47663,-12.09558 -1.15692,-2.85259 -3.82397,-4.92571 -4.97277,-7.78158 -1.29729,-3.22503 -2.44206,-6.77621 -2.03367,-10.22831 0.9684,-8.18564 7.49359,-14.72612 10.34832,-22.45871 1.9094,-5.17198 5.10561,-10.43581 4.49995,-15.91562 -0.3057,-2.76599 -4.26443,-4.5763 -3.97097,-7.34362 0.441,-4.15843 7.15943,-5.47529 8.14887,-9.5383 1.58259,-6.49869 -4.82763,-12.85758 -4.55998,-19.54083 0.1847,-4.61105 1.64769,-9.352 4.21415,-13.18725 2.11369,-3.15864 5.31291,-5.65854 8.71603,-7.35072 4.41549,-2.19557 10.19819,-0.7291 14.42982,-3.26098 3.02998,-1.8129 5.54815,-4.75668 6.94227,-8.00073 1.68532,-3.92167 1.76624,-8.50905 1.24124,-12.74511 -0.6619,-5.34088 -3.2373,-10.29086 -5.44044,-15.20098 -2.70414,-6.02668 -5.58895,-10.87353 -9.49782,-17.39226 -5.50613,-9.18243 -13.12479,-20.45751 -19.87248,-31.75059 -3.76299,-6.29782 -7.51431,-12.23932 -8.54188,-19.14299 -0.9272,-6.22921 2.4469,-12.05692 3.61525,-18.09621 1.02061,-5.27563 2.54639,-10.48814 2.96546,-15.84522 0.543,-6.94175 0.064,-13.9492 -0.6031,-20.88015 -0.582,-6.04964 -2.00972,-11.98805 -2.95801,-17.99119 -0.7348,-4.65186 -1.12705,-9.36477 -2.11672,-13.96915 -1.65174,-7.68469 -3.66595,-15.32255 -6.35907,-22.70698 -2.83347,-7.76928 -6.51306,-15.21634 -10.26043,-22.58842 -3.38335,-6.65596 -6.77223,-13.3604 -11.01682,-19.503069 -8.25113,-11.940821 -17.001,-23.841405 -27.88854,-33.439617 -7.25452,-6.395425 -15.8696,-11.152531 -24.43533,-15.64228 -8.2595,-4.32924 -17.17533,-7.271483 -25.80939,-10.794947 -9.0764,-3.703982 -18.04386,-7.718012 -27.32469,-10.875049 -8.57167,-2.915807 -17.31818,-5.333843 -26.12667,-7.428112 C 303.25879,13.6561 294.11066,12.249682 285.02578,10.56246 276.5314,8.9849032 268.10572,6.8941071 259.51371,5.9882787 250.88899,5.0790026 242.18199,5.2381675 233.51005,5.1384942 224.52935,5.0352721 215.52807,4.7906554 206.56743,5.399341 195.40595,6.1575269 184.1291,6.9193335 173.27174,9.6158555 151.38622,15.051317 129.70997,22.586829 109.97868,33.504527 92.554493,43.14566 76.560306,55.636116 62.415398,69.653082 56.156097,75.855767 50.726561,82.976579 46.228629,90.554228 33.808322,111.47867 24.091802,134.16565 16.969466,157.43298 c -5.209848,17.01959 -7.6733792,34.82922 -9.6488413,52.51839 -1.7264226,15.45916 -3.0199359,31.11214 -1.9003715,46.62706 1.0777214,14.93505 2.7125328,30.24621 8.2546018,44.15674 3.911082,9.81677 10.558216,18.41077 17.199463,26.63022 10.275021,12.71674 25.964777,20.84591 34.693039,34.67013 4.301795,6.81338 5.609499,15.11338 8.075426,22.78455 1.928297,5.99867 3.495592,12.10745 5.249922,18.15929 2.040981,7.04068 4.367734,14.00408 6.138144,21.11762 2.162349,8.68835 4.063909,17.45514 5.467231,26.29787 1.71075,10.77992 2.783616,21.66216 3.587932,32.54731 0.73478,9.94404 1.309414,19.92266 1.128068,29.89216 -0.20694,11.37663 -1.239742,22.73641 -2.527001,34.04188 -0.91065,7.99791 -1.419894,16.13983 -3.672019,23.86794 -2.264217,7.76961 -5.690948,15.23728 -9.777313,22.22263 -5.842071,9.9866 -12.818036,18.09563 -20.843456,27.75443"
       stroke="#888888"
       stroke-width="5"
       fill="none"
       style="opacity:0.5" /><path
       id="feature-line-cheek"
       d="m 474.41478,402.25264 c 0,0 -9.83993,1.34935 -14.69056,2.39149 -3.72705,0.8008 -7.25134,2.60062 -11.04638,2.96087 -2.08396,0.1978 -6.26343,-0.4555 -6.26343,-0.4555"
       stroke="#888888"
       stroke-width="5"
       fill="none"
       style="opacity:0.5" /><path
       id="feature-line-nose"
       d="m 502.52372,341.84888 c 0,0 -10.36729,-0.6432 -14.98171,1.31606 -6.36622,2.70305 -8.80953,12.66876 -15.66147,13.6101 -4.47254,0.6145 -9.10802,-2.54632 -12.2399,-5.79785 -2.55264,-2.65016 -3.70231,-6.52379 -4.34838,-10.14621 -0.7268,-4.07492 0.6442,-12.40094 0.6442,-12.40094"
       stroke="#888888"
       stroke-width="5"
       fill="none"
       style="opacity:0.5" /><path
       id="feature-line-eye-area"
       d="m 400.53486,259.41961 c 1.52998,-0.081 5.63679,-1.77156 5.63679,-1.77156 l 15.38039,-10.22675 12.32043,-10.30727 c 0,0 3.7027,-2.94951 5.87835,-3.78471 1.06423,-0.4085 2.83076,-0.2972 4.02627,0.322 1.11691,0.5785 1.9497,1.73061 2.41578,2.89893 0.6179,1.54895 0.3221,4.99258 0.3221,4.99258 0,0 -0.202,4.77571 -0.9663,7.00573 -0.7836,2.28655 -2.15251,4.36314 -3.62365,6.28099 -1.34003,1.74693 -2.74303,3.60637 -4.6705,4.67048 -2.12061,1.17074 -7.08624,1.61052 -7.08624,1.61052 0,0 -7.08625,-0.2416 -7.40836,-0.2416 h -6.3615 l -5.87838,1.69104 9.34098,-6.68363 13.28671,-9.01886 c 0,0 5.46926,-3.37494 8.45518,-4.50943 1.39368,-0.5295 4.34841,-1.04683 4.34841,-1.04683"
       stroke="#888888"
       stroke-width="5"
       fill="none"
       style="opacity:0.5" /><path
       id="feature-line-brow"
       d="m 451.26599,223.02205 c -0.1556,0.1556 -1.89655,2.59423 -3.82198,4.90808 -2.06163,2.47752 -4.31113,4.83551 -4.31113,4.83551"
       stroke="#888888"
       stroke-width="5"
       fill="none"
       style="opacity:0.5" /><path
       id="feature-line-eye-detail"
       d="m 443.93814,266.26427 c 0,-0.5637 0.7891,-4.17441 0.7248,-6.28098 -0.037,-1.22625 0.068,-2.62503 -0.6442,-3.62365 -0.3211,-0.4499 -1.44946,-0.8053 -1.44946,-0.8053"
       stroke="#888888"
       stroke-width="5"
       fill="none"
       style="opacity:0.5" /><path
       id="feature-line-temple"
       d="m 371.22355,269.32426 c 0,0 -4.31685,10.81281 -8.05256,15.13879 -1.65616,1.91785 -3.7861,3.52248 -6.11995,4.50946 -3.00757,1.27189 -9.66306,1.61049 -9.66306,1.61049 0,0 -7.11547,-0.1445 -10.62937,0.3221 -4.59515,0.6102 -13.5283,3.22104 -13.5283,3.22104 0,0 -6.98588,2.72242 -10.62937,3.54311 -4.32629,0.9745 -8.77214,1.53658 -13.2062,1.61052 -3.66417,0.061 -10.95148,-0.9663 -10.95148,-0.9663"
       stroke="#888888"
       stroke-width="5"
       fill="none"
       style="opacity:0.5" /><path
       id="feature-line-ear-region"
       d="m 253.48688,268.44319 c 0,0 -6.38385,-3.77437 -8.6549,-6.60505 -3.50738,-4.37167 -7.06059,-15.25997 -7.06059,-15.25997 0,0 -1.58852,-3.84497 -3.18865,-5.01073 -1.45857,-1.06263 -5.23849,-1.36657 -5.23849,-1.36657 0,0 -10.21822,-0.9065 -15.25997,-0.2278 -2.4288,0.327 -7.06059,2.04984 -7.06059,2.04984 0,0 -4.93615,0.6852 -7.51611,1.59433 -2.52052,0.8882 -4.74803,2.52203 -6.83282,4.19403 -1.53238,1.22897 -4.0997,4.23312 -4.0997,4.23312 l -2.50536,6.60506 -1.82209,10.02147 -1.1388,24.14262 c 0,0 -1.11136,8.04109 -0.911,12.07133 0.1301,2.61795 1.36657,7.74388 1.36657,7.74388 l 3.64417,14.12115 c 0,0 4.85558,9.97106 8.19939,14.34894 3.38891,4.43693 11.84355,11.84354 11.84355,11.84354 l 8.65491,8.88267 4.55522,6.14955 2.96089,5.23849 c 0,0 1.9887,3.9028 3.64417,5.23849 1.53625,1.23949 3.50608,2.04509 5.46626,2.27761 1.90876,0.2264 4.02679,0.046 5.69401,-0.911 2.38616,-1.36903 5.2385,-6.37731 5.2385,-6.37731 l 3.87193,-6.83281 2.27761,-5.92177"
       stroke="#888888"
       stroke-width="5"
       fill="none"
       style="opacity:0.5" /><path
       id="feature-line-ear-detail-1"
       d="m 187.78628,305.23867 0.4832,-26.57346 c 0,0 1.23441,-10.39619 3.54312,-14.97774 1.42287,-2.82364 3.65347,-5.26893 6.11995,-7.24731 1.98551,-1.59259 4.33512,-2.78259 6.76415,-3.54312 2.47823,-0.7759 5.13422,-1.02374 7.73045,-0.9663 2.5588,0.057 5.15017,0.453 7.5694,1.28841 2.77004,0.9566 5.40535,2.4035 7.73046,4.18733 2.22951,1.71049 5.47574,5.47574 5.79784,6.11994 0.3221,0.6442 2.73787,4.67048 3.05998,7.40837 0.3221,2.73785 0.8052,6.76415 0.8052,8.21359 0,1.44947 -0.4831,5.63679 -0.6442,6.76415"
       stroke="#888888"
       stroke-width="5"
       fill="none"
       style="opacity:0.5" /><path
       id="feature-line-ear-detail-2"
       d="m 227.18052,263.31859 c 0,0 0,2.9609 -1.36657,3.64418 -1.36656,0.6833 -15.48773,8.88265 -16.39877,9.56593 -0.911,0.6833 -5.23849,4.6691 -6.26342,6.03568 -1.02492,1.36654 -2.16373,4.5552 -2.84701,6.14952 -0.6833,1.59433 -1.59432,7.40222 -1.7082,8.54104 -0.1139,1.1388 -0.6833,11.16026 -0.7972,12.52683 -0.1139,1.36658 -0.1139,10.24925 -0.1139,10.81863 0,0.5694 0.4555,3.07478 1.1388,3.53031 0.6833,0.4555 1.99291,0.3987 2.61925,0.2278"
       stroke="#888888"
       stroke-width="5"
       fill="none"
       style="opacity:0.5" /><path
       id="feature-line-ear-detail-3"
       d="m 235.29638,273.27001 c -0.081,0.9663 -0.4026,4.18733 -0.4026,4.75102 0,0.5637 0.4026,2.8184 -1.36894,4.02627 -1.77156,1.20788 -7.97203,5.7173 -8.93834,6.20046 -0.9663,0.4832 -7.08625,5.79784 -7.08625,5.79784 0,0 -4.4289,4.83156 -4.4289,5.15363 0,0.3221 -1.44946,5.47577 -1.52999,5.9589 -0.081,0.4832 -0.4026,6.20048 -0.4026,6.20048 v 8.5357 c 0,0 0.1227,6.97389 2.09367,9.58254 1.02798,1.36057 2.82975,2.12159 4.50943,2.41578 2.37808,0.4165 4.87583,-0.2851 7.16678,-1.04682 1.70958,-0.5685 2.95,-2.5303 4.75101,-2.57683 2.61645,-0.068 4.95591,1.9634 7.08625,3.38209 2.13034,1.41869 3.33942,4.46237 5.63679,4.10678 1.11944,-0.1733 1.85209,-2.17419 2.01314,-2.73785 0.161,-0.5637 0.3758,-3.49676 -0.2416,-5.07313 -0.8824,-2.25286 -4.67048,-5.55625 -4.67048,-5.55625 l -2.49629,-4.18734 -2.41577,-8.61624 c 0,0 -1.28556,-5.54495 -0.3221,-8.05256 0.5787,-1.50607 3.38207,-3.46258 3.38207,-3.46258 0,0 1.89235,-2.67747 2.0534,-3.16063 0.1611,-0.4832 1.00657,-3.60352 1.0871,-4.00617 0.081,-0.4026 0.5637,-4.18732 0.5637,-4.18732"
       stroke="#888888"
       stroke-width="5"
       fill="none"
       style="opacity:0.5" /></g><g
     id="temporalis-palpation"
     transform="translate(51.000994,25.680275)"><path
       d="M 319.85101,113.788 296.96656,269.98727"
       stroke="#9ca3af"
       stroke-width="0.8"
       stroke-dasharray="0.3, 0.15"
       fill="none"
       id="divider-anterior-middle" /><path
       d="M 247.9652,240.24518 248.60787,74.825778"
       stroke="#9ca3af"
       stroke-width="0.8"
       stroke-dasharray="0.3, 0.15"
       fill="none"
       id="divider-middle-posterior" /><path
       d="m 324.29836,272.58501 23.30227,-71.75854 -15.57005,-69.37875"
       stroke="#000000"
       stroke-width="1.5"
       fill="none"
       marker-end="url(#arrowhead)"
       id="arrow-anterior" /><path
       d="m 271.7264,262.76551 9.56737,-84.20754 1.42546,-85.209775"
       stroke="#000000"
       stroke-width="1.5"
       fill="none"
       marker-end="url(#arrowhead)"
       id="arrow-middle" /><path
       d="m 209.34647,227.45054 0.627,-147.814713"
       stroke="#000000"
       stroke-width="1.5"
       fill="none"
       marker-end="url(#arrowhead)"
       id="arrow-posterior" /><circle
       cx="211.89796"
       cy="112.0359"
       r="8"
       fill="#4ade80"
       stroke="#22c55e"
       stroke-width="1.5"
       id="temporalisPosterior-3" /><circle
       cx="210.55933"
       cy="167.46312"
       r="8"
       fill="#4ade80"
       stroke="#22c55e"
       stroke-width="1.5"
       id="temporalisPosterior-2" /><circle
       cx="210.9339"
       cy="221.4305"
       r="8"
       fill="#4ade80"
       stroke="#22c55e"
       stroke-width="1.5"
       id="temporalisPosterior-1" /><circle
       cx="283.50854"
       cy="125.0307"
       fill="#4ade80"
       stroke="#22c55e"
       stroke-width="1.5"
       id="temporalisMiddle-3"
       r="8" /><circle
       cx="280.89536"
       cy="187.48865"
       r="8"
       fill="#4ade80"
       stroke="#22c55e"
       stroke-width="1.5"
       id="temporalisMiddle-2" /><circle
       cx="274.12952"
       cy="253.40712"
       r="8"
       fill="#4ade80"
       stroke="#22c55e"
       stroke-width="1.5"
       id="temporalisMiddle-1" /><circle
       cx="337.2796"
       cy="152.17816"
       r="8"
       fill="#4ade80"
       stroke="#22c55e"
       stroke-width="1.5"
       id="temporalisAnterior-3" /><circle
       cx="347.2796"
       cy="200.10184"
       r="8"
       fill="#4ade80"
       stroke="#22c55e"
       stroke-width="1.5"
       id="temporalisAnterior-2" /><circle
       cx="329.59528"
       cy="257.02292"
       r="8"
       fill="#4ade80"
       stroke="#22c55e"
       stroke-width="1.5"
       id="temporalisAnterior-1" /><text
       style="font-style:italic;font-variant:normal;font-weight:bold;font-stretch:normal;font-size:24px;font-family:Arial;writing-mode:lr-tb;direction:ltr;display:inline;fill:#374151;stroke:none;stroke-width:1"
       x="364.72104"
       y="96.860184"
       id="text-anterior"><tspan
         id="tspan-anterior"
         x="364.72104"
         y="96.860184"
         style="font-weight:bold;font-size:24px;stroke-width:1">Anterior</tspan></text><text
       style="font-style:italic;font-variant:normal;font-weight:bold;font-stretch:normal;font-size:24px;font-family:Arial;writing-mode:lr-tb;direction:ltr;display:inline;fill:#374151;stroke:none;stroke-width:1"
       x="64.962952"
       y="109.30094"
       id="text-posterior"><tspan
         id="tspan-posterior"
         x="64.962952"
         y="109.30094"
         style="font-weight:bold;font-size:24px;stroke-width:1">Posterior</tspan></text><text
       style="font-style:italic;font-variant:normal;font-weight:bold;font-stretch:normal;font-size:24px;font-family:Arial;writing-mode:lr-tb;direction:ltr;display:inline;fill:#374151;stroke:none;stroke-width:1"
       x="221.57114"
       y="47.714111"
       id="text-middle"><tspan
         id="tspan-middle"
         x="221.57114"
         y="47.714111"
         style="font-weight:bold;font-size:24px;stroke-width:1">Middle</tspan></text></g><g
     id="masseter-palpation"
     transform="translate(51.000994,25.680275)"><path
       d="m 287.32647,362.54733 65.2331,20.38534"
       stroke="#9ca3af"
       stroke-width="0.8"
       stroke-dasharray="0.3, 0.15"
       fill="none"
       id="divider-origin-body" /><path
       d="m 280.32392,404.96593 53.0019,18.05559"
       stroke="#9ca3af"
       stroke-width="0.8"
       stroke-dasharray="0.3, 0.15"
       fill="none"
       id="divider-body-insertion" /><path
       d="m 289.64293,331.57868 37.00597,10.5831 48.09982,18.46714"
       stroke="#000000"
       stroke-width="1.5"
       fill="none"
       marker-end="url(#arrowhead)"
       id="arrow-origin" /><path
       d="m 282.7676,380.71665 31.28078,10.00066 41.96311,14.81633"
       stroke="#000000"
       stroke-width="1.5"
       fill="none"
       marker-end="url(#arrowhead)"
       id="arrow-body" /><path
       d="m 279.74148,431.75809 23.29754,12.23121 38.44093,15.72584"
       stroke="#000000"
       stroke-width="1.5"
       fill="none"
       marker-end="url(#arrowhead)"
       id="arrow-insertion" /><circle
       cx="300.37775"
       cy="335.328"
       r="8"
       fill="#4ade80"
       stroke="#22c55e"
       stroke-width="1.5"
       id="masseterOrigin-1" /><circle
       cx="326.60669"
       cy="341.71219"
       r="8"
       fill="#4ade80"
       stroke="#22c55e"
       stroke-width="1.5"
       id="masseterOrigin-2" /><circle
       cx="352.83566"
       cy="350.86487"
       r="8"
       fill="#4ade80"
       stroke="#22c55e"
       stroke-width="1.5"
       id="masseterOrigin-3" /><circle
       cx="290.15134"
       cy="383.32285"
       r="8"
       fill="#4ade80"
       stroke="#22c55e"
       stroke-width="1.5"
       id="masseterBody-1" /><circle
       cx="314.30402"
       cy="390.39911"
       r="8"
       fill="#4ade80"
       stroke="#22c55e"
       stroke-width="1.5"
       id="masseterBody-2" /><circle
       cx="337.76453"
       cy="398.16754"
       r="8"
       fill="#4ade80"
       stroke="#22c55e"
       stroke-width="1.5"
       id="masseterBody-3" /><circle
       cx="282.69342"
       cy="434.08603"
       r="8"
       fill="#4ade80"
       stroke="#22c55e"
       stroke-width="1.5"
       id="masseterInsertion-1" /><circle
       cx="303.38556"
       cy="444.62289"
       r="8"
       fill="#4ade80"
       stroke="#22c55e"
       stroke-width="1.5"
       id="masseterInsertion-2" /><circle
       cx="327.53818"
       cy="455.15976"
       r="8"
       fill="#4ade80"
       stroke="#22c55e"
       stroke-width="1.5"
       id="masseterInsertion-3" /><text
       style="font-style:italic;font-variant:normal;font-weight:bold;font-stretch:normal;font-size:24px;font-family:Arial;writing-mode:lr-tb;direction:ltr;fill:#374151;stroke:none;stroke-width:1"
       x="396.30481"
       y="362.16385"
       id="text-origin"><tspan
         id="tspan-origin"
         x="396.30481"
         y="362.16385"
         style="font-weight:bold;stroke-width:1">Origin</tspan></text><text
       style="font-style:italic;font-variant:normal;font-weight:bold;font-stretch:normal;font-size:24px;font-family:Arial;writing-mode:lr-tb;direction:ltr;fill:#374151;stroke:none;stroke-width:1"
       x="382.43903"
       y="467.01367"
       id="text-insertion"><tspan
         id="tspan-insertion"
         x="382.43903"
         y="467.01367"
         style="font-weight:bold;stroke-width:1">Insertion</tspan></text><text
       style="font-style:italic;font-variant:normal;font-weight:bold;font-stretch:normal;font-size:24px;font-family:Arial;writing-mode:lr-tb;direction:ltr;fill:#374151;stroke:none;stroke-width:1"
       x="384.54767"
       y="417.8959"
       id="text-body"><tspan
         id="tspan-body"
         x="384.54767"
         y="417.8959"
         style="font-weight:bold;stroke-width:1">Body</tspan></text></g></svg>
